<?xml version="1.0" standalone="no"?>
<!DOCTYPE svg PUBLIC "-//W3C//DTD SVG 20010904//EN"
 "http://www.w3.org/TR/2001/REC-SVG-20010904/DTD/svg10.dtd">
<svg version="1.0" xmlns="http://www.w3.org/2000/svg"
 width="1280.000000pt" height="1110.000000pt" viewBox="0 0 1280.000000 1110.000000"
 preserveAspectRatio="xMidYMid meet">
<g transform="translate(0.000000,1110.000000) scale(0.100000,-0.100000)"
fill="#000000" stroke="none">
<path d="M2405 9624 l-830 -639 -292 -875 c-198 -593 -291 -885 -288 -905 2
-16 99 -484 215 -1040 l211 -1010 84 -125 c46 -69 185 -276 310 -460 125 -184
366 -540 535 -790 169 -250 341 -503 381 -562 l74 -108 872 -727 872 -728 553
-305 c933 -516 1040 -574 1144 -630 l100 -53 180 98 c98 54 409 225 689 380
281 155 606 335 723 399 l214 118 868 724 869 724 84 123 c164 239 847 1247
1071 1579 l226 337 96 453 c52 249 129 613 170 808 41 195 97 458 123 583 l48
228 -287 868 c-158 478 -292 876 -297 886 -5 9 -380 302 -834 651 l-824 635
-375 -6 c-206 -4 -595 -10 -863 -14 l-488 -9 -162 -110 c-89 -60 -302 -204
-474 -319 -171 -116 -406 -281 -521 -367 -116 -86 -218 -159 -226 -162 -9 -4
-37 9 -68 32 -324 233 -499 355 -885 617 l-452 307 -523 10 c-288 5 -674 12
-858 16 l-335 6 -830 -638z"/>
</g>
</svg>
